<svg id="visual" viewBox="0 0 900 600" width="900" height="600" xmlns="http://www.w3.org/2000/svg" xmlns:xlink="http://www.w3.org/1999/xlink" version="1.1"><rect x="0" y="0" width="900" height="600" fill="#ffffff"></rect><g transform="translate(431.2361158091743 290.64209994735074)"><path d="M205.2 -232.6C266.4 -193.2 316.9 -129 335 -54.8C353.1 19.3 339 103.4 293.9 158.5C248.8 213.6 172.8 239.8 98.6 263.7C24.4 287.5 -48 309.2 -117.8 295.8C-187.6 282.5 -254.9 234.3 -285.1 170.3C-315.2 106.3 -308.3 26.6 -284.7 -40.3C-261.2 -107.2 -221 -161.4 -170.8 -202.7C-120.5 -244 -60.3 -272.5 5.9 -279.5C72 -286.5 144 -271.9 205.2 -232.6" fill="none" stroke="#000000" stroke-width="6"></path></g></svg>